<svg xmlns="http://www.w3.org/2000/svg" width="680" height="400" font-family="sans-serif">
<rect width="680" height="400" fill="white"/>
<text x="340.0" y="26" text-anchor="middle" font-size="15" font-weight="bold">Validation verdict by artifact type (transported replies, n=291)</text>
<line x1="70" y1="300.0" x2="660" y2="300.0" stroke="#e0e0e0"/>
<text x="62" y="304.0" text-anchor="end" font-size="10" fill="#555">0</text>
<line x1="70" y1="250.0" x2="660" y2="250.0" stroke="#e0e0e0"/>
<text x="62" y="254.0" text-anchor="end" font-size="10" fill="#555">20</text>
<line x1="70" y1="200.0" x2="660" y2="200.0" stroke="#e0e0e0"/>
<text x="62" y="204.0" text-anchor="end" font-size="10" fill="#555">40</text>
<line x1="70" y1="150.0" x2="660" y2="150.0" stroke="#e0e0e0"/>
<text x="62" y="154.0" text-anchor="end" font-size="10" fill="#555">60</text>
<line x1="70" y1="100.0" x2="660" y2="100.0" stroke="#e0e0e0"/>
<text x="62" y="104.0" text-anchor="end" font-size="10" fill="#555">80</text>
<line x1="70" y1="50.0" x2="660" y2="50.0" stroke="#e0e0e0"/>
<text x="62" y="54.0" text-anchor="end" font-size="10" fill="#555">100</text>
<rect x="93.6" y="77.5" width="23.6" height="222.5" fill="#4e79a7"/>
<text x="105.4" y="72.5" text-anchor="middle" font-size="10" font-weight="bold">89</text>
<rect x="117.2" y="300.0" width="23.6" height="0.0" fill="#f28e2b"/>
<rect x="140.8" y="282.5" width="23.6" height="17.5" fill="#59a14f"/>
<text x="152.6" y="277.5" text-anchor="middle" font-size="10" font-weight="bold">7</text>
<text x="129.0" y="340.0" text-anchor="middle" font-size="11" fill="#333">MCQ</text>
<rect x="211.6" y="77.5" width="23.6" height="222.5" fill="#4e79a7"/>
<text x="223.4" y="72.5" text-anchor="middle" font-size="10" font-weight="bold">89</text>
<rect x="235.2" y="300.0" width="23.6" height="0.0" fill="#f28e2b"/>
<rect x="258.8" y="282.5" width="23.6" height="17.5" fill="#59a14f"/>
<text x="270.6" y="277.5" text-anchor="middle" font-size="10" font-weight="bold">7</text>
<text x="247.0" y="340.0" text-anchor="middle" font-size="11" fill="#333">Essay</text>
<rect x="329.6" y="300.0" width="23.6" height="0.0" fill="#4e79a7"/>
<rect x="353.2" y="62.5" width="23.6" height="237.5" fill="#f28e2b"/>
<text x="365.0" y="57.5" text-anchor="middle" font-size="10" font-weight="bold">95</text>
<rect x="376.8" y="300.0" width="23.6" height="0.0" fill="#59a14f"/>
<text x="365.0" y="340.0" text-anchor="middle" font-size="11" fill="#333">Completion</text>
<rect x="447.6" y="300.0" width="23.6" height="0.0" fill="#4e79a7"/>
<rect x="471.2" y="295.0" width="23.6" height="5.0" fill="#f28e2b"/>
<text x="483.0" y="290.0" text-anchor="middle" font-size="10" font-weight="bold">2</text>
<rect x="494.8" y="300.0" width="23.6" height="0.0" fill="#59a14f"/>
<text x="483.0" y="340.0" text-anchor="middle" font-size="11" fill="#333">Summary</text>
<rect x="565.6" y="300.0" width="23.6" height="0.0" fill="#4e79a7"/>
<rect x="589.2" y="295.0" width="23.6" height="5.0" fill="#f28e2b"/>
<text x="601.0" y="290.0" text-anchor="middle" font-size="10" font-weight="bold">2</text>
<rect x="612.8" y="300.0" width="23.6" height="0.0" fill="#59a14f"/>
<text x="601.0" y="340.0" text-anchor="middle" font-size="11" fill="#333">MindMap</text>
<rect x="70" y="366" width="14" height="14" fill="#4e79a7"/>
<text x="89" y="378" font-size="11">accepted (ok)</text>
<rect x="240" y="366" width="14" height="14" fill="#f28e2b"/>
<text x="259" y="378" font-size="11">rejected</text>
<rect x="410" y="366" width="14" height="14" fill="#59a14f"/>
<text x="429" y="378" font-size="11">skipped</text>
</svg>